<svg xmlns="http://www.w3.org/2000/svg" xmlns:xlink="http://www.w3.org/1999/xlink" width="25" height="25" viewBox="0 0 25 25">
    <path fill="#fff" d="M12.5,9.8075 C10.96575,9.8075 9.72225,11.01325 9.72225,12.5 C9.72225,13.98675 10.96575,15.1925 12.5,15.1925 C14.03375,15.1925 15.27775,13.98675 15.27775,12.5 C15.27775,11.817 12.9325,12.9745 12.5,12.5 C11.99125,11.9415 13.329,9.8075 12.5,9.8075 Z M6.94425,12.5 C6.94425,9.526 9.43175,7.11525 12.5,7.11525 C15.56825,7.11525 18.05575,9.526 18.05575,12.5 C18.05575,15.474 15.56825,17.88475 12.5,17.88475 C9.43175,17.88475 6.94425,15.474 6.94425,12.5 Z M0,12.5 C0,13.5264286 4.29925,20 12.5,20 C20.70025,20 25,13.5264286 25,12.5 C25,11.4735714 20.70025,5 12.5,5 C4.29925,5 0,11.4735714 0,12.5 Z"/>
</svg>
