<svg width="54" height="40" viewBox="0 0 54 40" xmlns="http://www.w3.org/2000/svg">
    <title>locator</title>
    <g fill="none" fill-rule="evenodd">
        <path fill="#000" d="M0 0h54v34H32l-5.5 6-5.5-6H0z"/>
        <path d="M27.706 25.734c-10.194 0-18.18-4.096-18.18-9.325 0-5.228 7.986-9.324 18.18-9.324 10.194 0 18.18 4.096 18.18 9.324 0 5.23-7.986 9.325-18.18 9.325zm0-17.669c-9.491 0-17.212 3.743-17.212 8.344 0 4.602 7.72 8.345 17.212 8.345 9.49 0 17.211-3.743 17.211-8.345 0-4.6-7.72-8.344-17.211-8.344zm-2.972 9.453c-1.308-1.473-2.329-2.87-2.359-3.674-.01-.28.03-.685.942.182.51.485 1.997 1.704 3.829 2.689-.784.36-1.604.651-2.412.803zM40.481 12.8c.912-.868.952-.462.942-.182-.084 2.26-8.274 10.422-8.454 10.604-.18.181-.538.545-1.21.545-.673 0-1.023-.373-1.211-.545-.067-.061-1.137-1.004-2.48-2.287.97-.935 1.947-1.924 2.804-2.879.297.045.594.073.887.077 3.53-.055 7.816-4.472 8.722-5.333zm-8.387 1.226c.912-.867.953-.461.942-.182-.084 2.26-7.987 9.208-8.173 9.378-.188.172-.538.545-1.211.545-.672 0-1.03-.364-1.21-.545-.18-.182-8.37-8.345-8.453-10.604-.01-.28.03-.686.942.182.906.862 5.192 5.278 8.722 5.333 3.53-.055 7.535-3.245 8.441-4.107z" fill="#FFF"/>
    </g>
</svg>
