<svg xmlns="http://www.w3.org/2000/svg" width="220" height="65" viewBox="0 0 220 65">
  <path fill="#FFFFFF" d="M10.595,48.964 C3.612,48.988 0,48.143 0,48.143 L0,45.824 C0,45.824 4.31,46.67 10.571,46.67 C15.387,46.645 17.481,46.43 18.179,46.332 L18.179,44.28 L0,44.303 L0,38.05 C0,38.05 3.733,37.205 10.571,37.229 C17.409,37.205 21.141,38.049 21.141,38.049 L21.141,40.392 C21.141,40.392 17.072,39.547 10.595,39.571 C6.261,39.547 3.805,39.812 2.986,39.933 L2.986,41.938 L21.142,41.914 L21.142,48.143 C21.142,48.143 17.554,48.963 10.595,48.988 L10.595,48.964 L10.595,48.964 Z M35.179,48.988 C28.149,49.012 24.609,48.167 24.609,48.167 L24.609,38.075 C24.609,38.075 27.979,37.229 35.179,37.253 C42.259,37.229 45.497,38.075 45.497,38.075 L45.481,46.995 L45.475,47.394 C45.571,48.24 42.186,48.988 35.179,49.012 L35.179,48.988 L35.179,48.988 Z M35.227,39.57 C31.062,39.547 28.461,39.813 27.619,39.91 L27.619,46.259 C28.534,46.356 31.303,46.646 35.204,46.622 C38.67,46.646 41.151,46.477 42.812,46.283 L42.836,39.91 C41.151,39.717 38.623,39.57 35.228,39.547 L35.228,39.571 L35.227,39.57 L35.227,39.57 Z M159.909,48.988 C152.879,49.012 149.339,48.167 149.339,48.167 L149.339,38.075 C149.339,38.075 152.709,37.229 159.909,37.253 C166.989,37.229 170.227,38.075 170.227,38.075 L170.21,46.995 L170.205,47.394 C170.301,48.24 166.916,48.988 159.909,49.012 L159.909,48.988 L159.909,48.988 Z M159.958,39.57 C155.792,39.547 153.192,39.813 152.348,39.91 L152.348,46.259 C153.264,46.356 156.032,46.646 159.934,46.622 C163.401,46.646 165.881,46.477 167.543,46.283 L167.567,39.91 C165.881,39.717 163.353,39.57 159.958,39.547 L159.958,39.571 L159.958,39.57 L159.958,39.57 Z M59.908,48.94 C52.756,48.964 49.192,48.119 49.192,48.119 L49.192,37.229 L52.178,37.205 L52.155,46.26 C53.865,46.453 56.416,46.622 59.908,46.597 C64.121,46.622 66.746,46.357 67.613,46.26 L67.613,37.23 L70.623,37.205 L70.623,48.119 C70.623,48.119 67.203,48.939 59.908,48.964 L59.908,48.939 L59.908,48.94 Z M86.105,48.94 L83.071,48.964 L83.095,39.571 C76.617,39.643 73.872,40.417 73.872,40.417 L73.872,38.027 C73.872,38.027 77.316,37.205 84.612,37.229 C91.86,37.205 95.328,38.026 95.328,38.026 L95.328,40.416 C95.328,40.416 92.534,39.668 86.105,39.668 L86.105,48.94 L86.105,48.94 Z M120.345,44.28 L120.345,48.94 L117.311,48.964 L117.311,44.304 L101.611,44.28 L101.611,48.94 L98.577,48.964 L98.577,37.23 L101.611,37.205 L101.611,41.889 L117.311,41.914 L117.311,37.23 L120.345,37.205 L120.345,44.28 Z M124.257,41.914 L124.257,38.001 C124.257,38.001 127.917,37.157 134.972,37.181 C142.052,37.157 145.712,38.001 145.712,38.001 L145.712,43.459 C145.712,43.459 142.052,44.329 134.972,44.304 L134.972,44.328 L127.243,44.304 L127.243,48.915 L124.257,48.939 L124.257,41.914 Z M134.972,39.547 C130.638,39.522 128.11,39.789 127.243,39.91 L127.243,41.962 L134.973,41.938 C138.512,41.962 141.016,41.792 142.701,41.6 L142.701,39.885 C141.016,39.692 138.511,39.522 134.972,39.547 L134.972,39.547 Z M192.182,46.283 C191.845,45.921 189.485,44.353 176.772,44.328 L176.772,48.915 L173.762,48.939 L173.762,38.001 C173.762,38.001 177.398,37.157 184.502,37.181 C191.556,37.157 195.192,38.001 195.192,38.001 L195.192,43.507 C195.192,43.507 194.278,43.7 192.447,43.845 C193.338,44.135 194.254,44.545 195.193,45.269 L195.193,48.915 L192.183,48.939 L192.183,46.283 L192.182,46.283 L192.182,46.283 Z M184.501,39.547 C180.167,39.522 177.615,39.789 176.771,39.885 L176.771,41.938 L184.501,41.938 C187.992,41.914 190.521,41.744 192.182,41.575 L192.182,39.885 C190.521,39.692 187.992,39.522 184.502,39.547 L184.501,39.547 Z M210.433,48.94 L207.399,48.964 L207.423,39.571 C200.946,39.643 198.201,40.417 198.201,40.417 L198.201,38.027 C198.201,38.027 201.644,37.205 208.94,37.229 C216.188,37.205 219.656,38.026 219.656,38.026 L219.656,40.416 C219.656,40.416 216.862,39.668 210.433,39.668 L210.433,48.94 L210.433,48.94 Z M109.828,29.58 C93.573,29.58 80.839,23.113 80.839,14.857 C80.839,6.601 93.573,0.134 109.828,0.134 C126.084,0.134 138.817,6.601 138.817,14.857 C138.817,23.113 126.084,29.58 109.827,29.58 L109.828,29.58 L109.828,29.58 Z M109.828,1.682 C94.694,1.682 82.383,7.592 82.383,14.857 C82.383,22.122 94.694,28.032 109.828,28.032 C124.962,28.032 137.273,22.122 137.273,14.857 C137.273,7.592 124.962,1.682 109.828,1.682 Z M105.09,16.608 C103.003,14.281 101.376,12.076 101.328,10.807 C101.311,10.364 101.376,9.724 102.83,11.094 C103.642,11.859 106.015,13.784 108.935,15.339 C107.686,15.909 106.378,16.368 105.09,16.608 Z M130.199,9.158 C131.653,7.788 131.717,8.428 131.701,8.871 C131.567,12.438 118.508,25.327 118.221,25.614 C117.935,25.9 117.363,26.474 116.29,26.474 C115.219,26.474 114.66,25.885 114.36,25.614 C114.254,25.517 112.548,24.029 110.407,22.002 C111.952,20.527 113.511,18.964 114.877,17.457 C115.351,17.528 115.824,17.572 116.291,17.578 C121.919,17.491 128.754,10.518 130.199,9.158 L130.199,9.158 Z M116.826,11.094 C118.28,9.724 118.345,10.365 118.328,10.807 C118.193,14.374 105.592,25.345 105.295,25.614 C104.995,25.885 104.437,26.474 103.364,26.474 C102.293,26.474 101.721,25.9 101.434,25.614 C101.148,25.327 88.089,12.438 87.956,8.871 C87.939,8.428 88.003,7.788 89.457,9.158 C90.902,10.519 97.736,17.491 103.365,17.579 C108.994,17.491 115.381,12.454 116.826,11.094 L116.826,11.094 Z M39.614,58.268 L44.385,58.268 L44.385,58.948 L40.36,58.948 L40.36,61.208 L43.962,61.208 L43.962,61.889 L40.36,61.889 L40.36,64.206 L44.434,64.206 L44.434,64.886 L39.615,64.886 L39.615,58.268 L39.614,58.268 L39.614,58.268 Z M48.44,61.512 L45.997,58.268 L46.874,58.268 L48.902,60.972 L50.91,58.268 L51.777,58.268 L49.335,61.5 L51.872,64.886 L50.985,64.886 L48.873,62.04 L46.761,64.886 L45.903,64.886 L48.439,61.511 L48.44,61.512 L48.44,61.512 Z M53.71,58.268 L56.18,58.268 C57.67,58.268 58.65,59.063 58.65,60.368 L58.65,60.386 C58.65,61.814 57.463,62.551 56.058,62.551 L54.455,62.551 L54.455,64.887 L53.71,64.887 L53.71,58.267 L53.71,58.268 Z M56.086,61.87 C57.18,61.87 57.896,61.285 57.896,60.415 L57.896,60.395 C57.896,59.45 57.189,58.959 56.124,58.959 L54.454,58.959 L54.454,61.871 L56.086,61.871 L56.086,61.87 Z M60.48,58.268 L65.25,58.268 L65.25,58.948 L61.224,58.948 L61.224,61.208 L64.827,61.208 L64.827,61.889 L61.224,61.889 L61.224,64.206 L65.298,64.206 L65.298,64.886 L60.48,64.886 L60.48,58.268 L60.48,58.268 Z M67.268,58.268 L70.106,58.268 C70.917,58.268 71.568,58.514 71.983,58.93 C72.303,59.25 72.492,59.715 72.492,60.235 L72.492,60.253 C72.492,61.351 71.738,61.993 70.7,62.183 L72.728,64.887 L71.813,64.887 L69.9,62.315 L68.014,62.315 L68.014,64.887 L67.269,64.887 L67.269,58.267 L67.268,58.268 L67.268,58.268 Z M70.04,61.644 C71.03,61.644 71.738,61.134 71.738,60.282 L71.738,60.262 C71.738,59.45 71.115,58.959 70.05,58.959 L68.013,58.959 L68.013,61.644 L70.04,61.644 L70.04,61.644 Z M74.622,64.887 L74.622,58.267 L75.367,58.267 L75.367,64.887 L74.622,64.887 Z M77.771,58.268 L82.542,58.268 L82.542,58.948 L78.516,58.948 L78.516,61.208 L82.118,61.208 L82.118,61.889 L78.516,61.889 L78.516,64.206 L82.59,64.206 L82.59,64.886 L77.77,64.886 L77.77,58.268 L77.771,58.268 L77.771,58.268 Z M84.56,58.268 L85.258,58.268 L89.416,63.573 L89.416,58.268 L90.142,58.268 L90.142,64.887 L89.548,64.887 L85.286,59.46 L85.286,64.887 L84.56,64.887 L84.56,58.267 L84.56,58.268 Z M92.187,61.596 L92.187,61.578 C92.187,59.705 93.583,58.155 95.526,58.155 C96.723,58.155 97.44,58.58 98.1,59.204 L97.59,59.753 C97.034,59.223 96.412,58.845 95.516,58.845 C94.055,58.845 92.961,60.036 92.961,61.559 L92.961,61.578 C92.961,63.108 94.064,64.31 95.516,64.31 C96.421,64.31 97.016,63.96 97.647,63.355 L98.137,63.837 C97.449,64.537 96.695,65 95.497,65 C93.592,65 92.187,63.497 92.187,61.596 L92.187,61.596 Z M99.91,58.268 L104.68,58.268 L104.68,58.948 L100.654,58.948 L100.654,61.208 L104.256,61.208 L104.256,61.889 L100.654,61.889 L100.654,64.206 L104.728,64.206 L104.728,64.886 L99.909,64.886 L99.909,58.268 L99.91,58.268 L99.91,58.268 Z M109.998,58.268 L114.769,58.268 L114.769,58.948 L110.743,58.948 L110.743,61.208 L114.345,61.208 L114.345,61.889 L110.743,61.889 L110.743,64.206 L114.816,64.206 L114.816,64.886 L109.998,64.886 L109.998,58.268 L109.998,58.268 Z M118.823,61.512 L116.381,58.268 L117.258,58.268 L119.285,60.972 L121.294,58.268 L122.162,58.268 L119.719,61.501 L122.256,64.887 L121.369,64.887 L119.257,62.041 L117.145,64.887 L116.287,64.887 L118.823,61.512 Z M123.33,61.596 L123.33,61.578 C123.33,59.705 124.725,58.155 126.667,58.155 C127.865,58.155 128.581,58.58 129.241,59.204 L128.733,59.753 C128.176,59.223 127.553,58.845 126.658,58.845 C125.196,58.845 124.103,60.036 124.103,61.559 L124.103,61.578 C124.103,63.108 125.206,64.31 126.658,64.31 C127.563,64.31 128.158,63.96 128.788,63.355 L129.279,63.837 C128.591,64.537 127.837,65 126.639,65 C124.734,65 123.329,63.497 123.329,61.596 L123.33,61.596 L123.33,61.596 Z M131.051,58.268 L135.823,58.268 L135.823,58.948 L131.797,58.948 L131.797,61.208 L135.398,61.208 L135.398,61.889 L131.797,61.889 L131.797,64.206 L135.87,64.206 L135.87,64.886 L131.051,64.886 L131.051,58.268 L131.051,58.268 Z M137.84,58.268 L138.585,58.268 L138.585,64.197 L142.3,64.197 L142.3,64.887 L137.84,64.887 L137.84,58.267 L137.84,58.268 Z M144.147,58.268 L144.892,58.268 L144.892,64.197 L148.607,64.197 L148.607,64.887 L144.147,64.887 L144.147,58.267 L144.147,58.268 Z M150.455,58.268 L155.227,58.268 L155.227,58.948 L151.2,58.948 L151.2,61.208 L154.802,61.208 L154.802,61.889 L151.2,61.889 L151.2,64.206 L155.274,64.206 L155.274,64.886 L150.454,64.886 L150.454,58.268 L150.455,58.268 L150.455,58.268 Z M157.243,58.268 L157.942,58.268 L162.1,63.573 L162.1,58.268 L162.825,58.268 L162.825,64.887 L162.232,64.887 L157.97,59.46 L157.97,64.887 L157.243,64.887 L157.243,58.267 L157.243,58.268 Z M164.87,61.596 L164.87,61.578 C164.87,59.705 166.267,58.155 168.21,58.155 C169.406,58.155 170.123,58.58 170.784,59.204 L170.274,59.753 C169.718,59.223 169.096,58.845 168.199,58.845 C166.739,58.845 165.644,60.036 165.644,61.559 L165.644,61.578 C165.644,63.108 166.748,64.31 168.199,64.31 C169.105,64.31 169.699,63.96 170.331,63.355 L170.821,63.837 C170.133,64.537 169.379,65 168.181,65 C166.276,65 164.871,63.497 164.871,61.596 L164.87,61.596 L164.87,61.596 Z M172.593,58.268 L177.365,58.268 L177.365,58.948 L173.338,58.948 L173.338,61.208 L176.94,61.208 L176.94,61.889 L173.338,61.889 L173.338,64.206 L177.412,64.206 L177.412,64.886 L172.593,64.886 L172.593,58.268 L172.593,58.268 Z"/>
</svg>
