<svg width="48" height="48" viewBox="0 0 48 48" xmlns="http://www.w3.org/2000/svg">
    <title>quotes </title>
    <g fill="none" fill-rule="evenodd">
        <rect fill="#FFF" width="48" height="48" rx="24"/>
        <path d="M8.927 23.608c0 2.316 1.37 3.593 2.93 3.593 1.419 0 2.506-1.135 2.506-2.506 0-1.418-.945-2.41-2.269-2.41-.236 0-.567.047-.614.047.141-1.513 1.512-3.404 3.025-4.397l-1.749-1.418c-2.175 1.56-3.83 4.207-3.83 7.09zm7.564 0c0 2.316 1.37 3.593 2.93 3.593 1.419 0 2.553-1.135 2.553-2.506 0-1.418-.993-2.41-2.316-2.41-.237 0-.567.047-.615.047.19-1.513 1.513-3.404 3.026-4.397l-1.75-1.418c-2.174 1.56-3.828 4.207-3.828 7.09zm21.436-.275c0-2.317-1.418-3.593-2.978-3.593-1.371 0-2.506 1.182-2.506 2.553 0 1.418.993 2.41 2.317 2.41.189 0 .52-.047.614-.094-.189 1.513-1.513 3.404-3.025 4.397l1.749 1.465c2.127-1.56 3.829-4.255 3.829-7.138zm-7.564 0c0-2.317-1.418-3.593-2.978-3.593-1.418 0-2.505 1.182-2.505 2.553 0 1.418.945 2.41 2.269 2.41.236 0 .567-.047.661-.094-.189 1.513-1.56 3.404-3.072 4.397l1.749 1.465c2.174-1.56 3.876-4.255 3.876-7.138z" fill="#000" fill-rule="nonzero"/>
    </g>
</svg>
